<svg width="131" height="32" viewBox="0 0 131 32" fill="none" xmlns="http://www.w3.org/2000/svg">
<path d="M16.0001 22.4011C12.4655 22.4011 9.6001 19.5357 9.6001 16.0011C9.6001 12.4665 12.4655 9.60107 16.0001 9.60107C19.5347 9.60107 22.4001 12.4665 22.4001 16.0011C22.4001 19.5357 19.5347 22.4011 16.0001 22.4011Z" fill="#C3DF94"/>
<path d="M3.60099 18.1873C1.74632 18.5143 0.475044 20.3059 1.18699 22.0495C2.18095 24.4836 3.76669 26.6523 5.82249 28.3471C8.76213 30.7702 12.4699 32.065 16.2789 31.9986C20.088 31.9321 23.7484 30.5087 26.6017 27.9843C28.597 26.219 30.1061 23.9961 31.0146 21.5288C31.6653 19.7615 30.3322 18.0153 28.4672 17.7533C26.6023 17.4912 24.9279 18.8486 24.0067 20.4913C23.5074 21.3816 22.8592 22.1894 22.0827 22.8765C20.4455 24.3249 18.3454 25.1415 16.16 25.1797C13.9745 25.2178 11.8471 24.475 10.1605 23.0846C9.36042 22.425 8.68447 21.6404 8.15436 20.768C7.17645 19.1585 5.45565 17.8602 3.60099 18.1873Z" fill="#F75709"/>
<path d="M31.8763 18.0004C31.958 17.3454 32 16.6781 32 16.001C32 7.16442 24.8366 0.000976562 16 0.000976562C7.16345 0.000976562 0 7.16442 0 16.001C0 16.87 0.06928 17.7228 0.202624 18.5543C0.937536 17.5482 2.08454 16.83 3.32348 16.6115C4.66395 16.3752 5.88222 16.7003 6.91229 17.308C6.85144 16.8811 6.81995 16.4447 6.81995 16.001C6.81995 10.931 10.93 6.82092 16 6.82092C21.07 6.82092 25.1801 10.931 25.1801 16.001C25.1801 16.3353 25.1621 16.6654 25.1274 16.9904C26.1357 16.3469 27.3421 15.9792 28.6902 16.1688C29.9357 16.3438 31.1067 17.0211 31.8763 18.0004Z" fill="#C3DF94"/>
<path d="M41.83 28.001V3.70097H49.54C51 3.70097 52.19 3.98097 53.11 4.54097C54.03 5.08097 54.71 5.87098 55.15 6.91098C55.61 7.95098 55.84 9.21098 55.84 10.691C55.84 12.431 55.54 13.791 54.94 14.771C54.36 15.751 53.56 16.451 52.54 16.871C51.52 17.271 50.35 17.471 49.03 17.471H46.78V28.001H41.83ZM46.78 13.991H48.52C49.24 13.991 49.79 13.881 50.17 13.661C50.57 13.421 50.84 13.051 50.98 12.551C51.12 12.051 51.19 11.411 51.19 10.631C51.19 9.89097 51.13 9.27098 51.01 8.77098C50.91 8.27098 50.67 7.88098 50.29 7.60098C49.91 7.32098 49.31 7.18098 48.49 7.18098H46.78V13.991ZM57.7827 28.001V3.70097H64.0827C65.7227 3.70097 67.1227 3.89098 68.2827 4.27098C69.4627 4.63098 70.3627 5.28098 70.9827 6.22098C71.6227 7.16098 71.9427 8.46098 71.9427 10.121C71.9427 11.121 71.8527 12.011 71.6727 12.791C71.5127 13.551 71.2127 14.221 70.7727 14.801C70.3527 15.361 69.7527 15.811 68.9727 16.151L72.3327 28.001H67.2627L64.4727 16.991H62.7327V28.001H57.7827ZM62.7327 14.051H64.1727C64.9727 14.051 65.6027 13.921 66.0627 13.661C66.5227 13.401 66.8427 13.011 67.0227 12.491C67.2227 11.951 67.3227 11.291 67.3227 10.511C67.3227 9.39098 67.1127 8.54097 66.6927 7.96098C66.2927 7.36098 65.5327 7.06098 64.4127 7.06098H62.7327V14.051ZM81.2479 28.331C79.4679 28.331 78.0579 28.011 77.0179 27.371C75.9779 26.731 75.2279 25.821 74.7679 24.641C74.3279 23.441 74.1079 22.011 74.1079 20.351V11.291C74.1079 9.63098 74.3279 8.21098 74.7679 7.03097C75.2279 5.85098 75.9779 4.95098 77.0179 4.33098C78.0579 3.71098 79.4679 3.40097 81.2479 3.40097C83.0479 3.40097 84.4679 3.72098 85.5079 4.36098C86.5679 4.98098 87.3179 5.88098 87.7579 7.06098C88.2179 8.22098 88.4479 9.63098 88.4479 11.291V20.351C88.4479 22.011 88.2179 23.441 87.7579 24.641C87.3179 25.821 86.5679 26.731 85.5079 27.371C84.4679 28.011 83.0479 28.331 81.2479 28.331ZM81.2479 24.761C81.8879 24.761 82.3579 24.621 82.6579 24.341C82.9579 24.041 83.1579 23.651 83.2579 23.171C83.3579 22.671 83.4079 22.141 83.4079 21.581V10.091C83.4079 9.53098 83.3579 9.01098 83.2579 8.53098C83.1579 8.05098 82.9579 7.67098 82.6579 7.39098C82.3579 7.09098 81.8879 6.94098 81.2479 6.94098C80.6479 6.94098 80.1979 7.09098 79.8979 7.39098C79.5979 7.67098 79.3979 8.05098 79.2979 8.53098C79.1979 9.01098 79.1479 9.53098 79.1479 10.091V21.581C79.1479 22.141 79.1879 22.671 79.2679 23.171C79.3679 23.651 79.5679 24.041 79.8679 24.341C80.1679 24.621 80.6279 24.761 81.2479 24.761ZM90.048 28.001V24.941L96.228 7.06098H90.348V3.70097H101.178V6.40098L94.818 24.641H101.208V28.001H90.048ZM103.239 28.001V3.70097H113.829V7.12098H108.189V13.571H112.539V17.021H108.189V24.641H113.889V28.001H103.239ZM115.793 28.001V3.70097H119.243L124.643 16.361V3.70097H128.723V28.001H125.423L120.023 14.561V28.001H115.793Z" fill="white"/>
</svg>
