<svg width="131" height="32" viewBox="0 0 131 32" fill="none" xmlns="http://www.w3.org/2000/svg">
<path d="M16.0001 22.4001C12.4655 22.4001 9.6001 19.5347 9.6001 16.0001C9.6001 12.4655 12.4655 9.6001 16.0001 9.6001C19.5347 9.6001 22.4001 12.4655 22.4001 16.0001C22.4001 19.5347 19.5347 22.4001 16.0001 22.4001Z" fill="#F75709"/>
<path d="M3.60099 18.1861C1.74632 18.5131 0.475044 20.3047 1.18699 22.0482C2.18095 24.4824 3.76669 26.6511 5.82249 28.3458C8.76213 30.769 12.4699 32.0638 16.2789 31.9974C20.088 31.9309 23.7484 30.5074 26.6017 27.9831C28.597 26.2177 30.1061 23.9949 31.0146 21.5276C31.6653 19.7602 30.3322 18.0141 28.4672 17.752C26.6023 17.49 24.9279 18.8474 24.0067 20.4901C23.5074 21.3804 22.8592 22.1882 22.0827 22.8752C20.4455 24.3237 18.3454 25.1403 16.16 25.1785C13.9745 25.2166 11.8471 24.4737 10.1605 23.0833C9.36042 22.4238 8.68447 21.6392 8.15436 20.7668C7.17645 19.1573 5.45565 17.859 3.60099 18.1861Z" fill="#F75709"/>
<path d="M31.8763 17.9995C31.958 17.3444 32 16.6771 32 16C32 7.16345 24.8366 0 16 0C7.16345 0 0 7.16345 0 16C0 16.869 0.06928 17.7218 0.202624 18.5533C0.937536 17.5472 2.08454 16.829 3.32348 16.6106C4.66395 16.3742 5.88222 16.6993 6.91229 17.307C6.85144 16.8801 6.81995 16.4437 6.81995 16C6.81995 10.93 10.93 6.81995 16 6.81995C21.07 6.81995 25.1801 10.93 25.1801 16C25.1801 16.3343 25.1621 16.6644 25.1274 16.9894C26.1357 16.3459 27.3421 15.9782 28.6902 16.1678C29.9357 16.3428 31.1067 17.0202 31.8763 17.9995Z" fill="#063231"/>
<path d="M41.83 28V3.7H49.54C51 3.7 52.19 3.98 53.11 4.54C54.03 5.08 54.71 5.87 55.15 6.91C55.61 7.95 55.84 9.21 55.84 10.69C55.84 12.43 55.54 13.79 54.94 14.77C54.36 15.75 53.56 16.45 52.54 16.87C51.52 17.27 50.35 17.47 49.03 17.47H46.78V28H41.83ZM46.78 13.99H48.52C49.24 13.99 49.79 13.88 50.17 13.66C50.57 13.42 50.84 13.05 50.98 12.55C51.12 12.05 51.19 11.41 51.19 10.63C51.19 9.89 51.13 9.27 51.01 8.77C50.91 8.27 50.67 7.88 50.29 7.6C49.91 7.32 49.31 7.18 48.49 7.18H46.78V13.99ZM57.7827 28V3.7H64.0827C65.7227 3.7 67.1227 3.89 68.2827 4.27C69.4627 4.63 70.3627 5.28 70.9827 6.22C71.6227 7.16 71.9427 8.46 71.9427 10.12C71.9427 11.12 71.8527 12.01 71.6727 12.79C71.5127 13.55 71.2127 14.22 70.7727 14.8C70.3527 15.36 69.7527 15.81 68.9727 16.15L72.3327 28H67.2627L64.4727 16.99H62.7327V28H57.7827ZM62.7327 14.05H64.1727C64.9727 14.05 65.6027 13.92 66.0627 13.66C66.5227 13.4 66.8427 13.01 67.0227 12.49C67.2227 11.95 67.3227 11.29 67.3227 10.51C67.3227 9.39 67.1127 8.54 66.6927 7.96C66.2927 7.36 65.5327 7.06 64.4127 7.06H62.7327V14.05ZM81.2479 28.33C79.4679 28.33 78.0579 28.01 77.0179 27.37C75.9779 26.73 75.2279 25.82 74.7679 24.64C74.3279 23.44 74.1079 22.01 74.1079 20.35V11.29C74.1079 9.63 74.3279 8.21 74.7679 7.03C75.2279 5.85 75.9779 4.95 77.0179 4.33C78.0579 3.71 79.4679 3.4 81.2479 3.4C83.0479 3.4 84.4679 3.72 85.5079 4.36C86.5679 4.98 87.3179 5.88 87.7579 7.06C88.2179 8.22 88.4479 9.63 88.4479 11.29V20.35C88.4479 22.01 88.2179 23.44 87.7579 24.64C87.3179 25.82 86.5679 26.73 85.5079 27.37C84.4679 28.01 83.0479 28.33 81.2479 28.33ZM81.2479 24.76C81.8879 24.76 82.3579 24.62 82.6579 24.34C82.9579 24.04 83.1579 23.65 83.2579 23.17C83.3579 22.67 83.4079 22.14 83.4079 21.58V10.09C83.4079 9.53 83.3579 9.01 83.2579 8.53C83.1579 8.05 82.9579 7.67 82.6579 7.39C82.3579 7.09 81.8879 6.94 81.2479 6.94C80.6479 6.94 80.1979 7.09 79.8979 7.39C79.5979 7.67 79.3979 8.05 79.2979 8.53C79.1979 9.01 79.1479 9.53 79.1479 10.09V21.58C79.1479 22.14 79.1879 22.67 79.2679 23.17C79.3679 23.65 79.5679 24.04 79.8679 24.34C80.1679 24.62 80.6279 24.76 81.2479 24.76ZM90.048 28V24.94L96.228 7.06H90.348V3.7H101.178V6.4L94.818 24.64H101.208V28H90.048ZM103.239 28V3.7H113.829V7.12H108.189V13.57H112.539V17.02H108.189V24.64H113.889V28H103.239ZM115.793 28V3.7H119.243L124.643 16.36V3.7H128.723V28H125.423L120.023 14.56V28H115.793Z" fill="#063231"/>
</svg>
